<svg id="Layer_1" data-name="Layer 1" xmlns="http://www.w3.org/2000/svg" viewBox="0 0 56.96 16"><defs><style>.cls-1{fill:#c7b570;}.cls-2{fill:#6e2405;}.cls-3{fill:#b2a066;}.cls-4{fill:none;}</style></defs><title>logo</title><circle class="cls-1" cx="3.89" cy="3.89" r="1.94"/><path class="cls-2" d="M5.43,5.43a2.18,2.18,0,1,1,0-3.09A2.19,2.19,0,0,1,5.43,5.43ZM2.69,2.69a1.68,1.68,0,0,0,0,2.4,1.7,1.7,0,0,0,2.4-2.4A1.68,1.68,0,0,0,2.69,2.69Z"/><path class="cls-2" d="M8.17,8.17a4.12,4.12,0,1,1,0-5.83A4.12,4.12,0,0,1,8.17,8.17ZM2.69,2.69a3.63,3.63,0,1,0,5.14,0A3.63,3.63,0,0,0,2.69,2.69Z"/><path class="cls-2" d="M16,7.16a8.34,8.34,0,0,0-.46-2c-.12.16-.22.33-.35.49a7.32,7.32,0,0,1,.35,1.9.46.46,0,0,1,.07-.07Z"/><path class="cls-2" d="M15.5,7.72a7.5,7.5,0,1,1-2.19-5A7.28,7.28,0,0,1,15,5.2c.1-.15.19-.28.28-.44l0,0a7.94,7.94,0,0,0-1.62-2.37A8,8,0,1,0,16,7.28C15.81,7.42,15.64,7.57,15.5,7.72Z"/><path class="cls-3" d="M30.57,10.89l-1.25,1.84,0,0a5.24,5.24,0,0,1,.35-.4l.46-.45c.17-.16.35-.31.53-.46s.37-.29.55-.41a.64.64,0,0,1,.11-.16.33.33,0,0,1,.23-.06h.37a3.68,3.68,0,0,0-.33.41,1,1,0,0,0-.15.53.49.49,0,0,0,.11.36.35.35,0,0,0,.28.13.72.72,0,0,0,.29-.06,1.51,1.51,0,0,0,.28-.15,2.23,2.23,0,0,0,.24-.19l.21-.17.06,0-.23.21a1.94,1.94,0,0,1-.27.21,1.37,1.37,0,0,1-.32.16.84.84,0,0,1-.35.07.66.66,0,0,1-.7-.73.89.89,0,0,1,.11-.43l0,0a7.2,7.2,0,0,0-.89.73,13.18,13.18,0,0,0-1,1.06,3.82,3.82,0,0,0-.41.58,4.17,4.17,0,0,0-.37.73H27.8l1.07-1.69c.36-.56.72-1.14,1.1-1.72Z"/><path class="cls-3" d="M36.18,11.81a5.32,5.32,0,0,1-.6.79,8.65,8.65,0,0,1-.81.79,5.29,5.29,0,0,1-1.07.72,2.28,2.28,0,0,1-1.05.27,1,1,0,0,1-.61-.19.67.67,0,0,1-.25-.57,1.92,1.92,0,0,1,.28-1,3.73,3.73,0,0,1,.68-.91,3.64,3.64,0,0,1,.9-.67,2.05,2.05,0,0,1,.93-.26,1.15,1.15,0,0,1,.5.11.37.37,0,0,1,.21.36.27.27,0,0,1-.07.2.64.64,0,0,1-.15.13l-.21.07-.2,0a1.72,1.72,0,0,1,.07-.21,1.49,1.49,0,0,0,0-.21c0-.24-.11-.37-.34-.37a1.16,1.16,0,0,0-.61.25,3.65,3.65,0,0,0-.67.64,5,5,0,0,0-.53.86,2.18,2.18,0,0,0-.21.9.79.79,0,0,0,.12.45.41.41,0,0,0,.38.19,1.86,1.86,0,0,0,.8-.23,5.64,5.64,0,0,0,.88-.56,7,7,0,0,0,.85-.8,5.75,5.75,0,0,0,.69-.88Z"/><path class="cls-3" d="M38.8,10.89h.65l-.71,1c-.22.33-.42.63-.59.9s-.32.52-.43.72a1.24,1.24,0,0,0-.15.49.23.23,0,0,0,.26.26,1.1,1.1,0,0,0,.53-.2,4.5,4.5,0,0,0,.7-.56,10.6,10.6,0,0,0,.77-.83c.27-.32.52-.66.76-1l.06,0q-.27.4-.63.87a9.43,9.43,0,0,1-.76.88,5.31,5.31,0,0,1-.79.68,1.35,1.35,0,0,1-.75.27.57.57,0,0,1-.42-.14.49.49,0,0,1-.13-.35,1.26,1.26,0,0,1,0-.27l.1-.27h0c-.09.09-.19.2-.32.32a3.47,3.47,0,0,1-.42.34,2.4,2.4,0,0,1-.46.27,1.14,1.14,0,0,1-.46.11.57.57,0,0,1-.51-.23.9.9,0,0,1-.15-.51,2,2,0,0,1,.26-.9,4.4,4.4,0,0,1,.65-.92,4.11,4.11,0,0,1,.86-.72,1.73,1.73,0,0,1,.89-.29.9.9,0,0,1,.34.06.7.7,0,0,1,.25.15.51.51,0,0,1,.15.21,1.06,1.06,0,0,1,.09.25h0Zm-3.23,2.78a.58.58,0,0,0,.09.35.31.31,0,0,0,.26.12.89.89,0,0,0,.4-.12,3.12,3.12,0,0,0,.47-.33,4.41,4.41,0,0,0,.49-.48,4.67,4.67,0,0,0,.44-.58A4.5,4.5,0,0,0,38,12a1.69,1.69,0,0,0,.12-.6.45.45,0,0,0-.13-.35.44.44,0,0,0-.32-.12,1.24,1.24,0,0,0-.66.26,3.54,3.54,0,0,0-.69.66,4,4,0,0,0-.55.89A2.18,2.18,0,0,0,35.57,13.67Z"/><path class="cls-3" d="M41.55,10.89l-1.31,1.82,0,0,.49-.58a5.86,5.86,0,0,1,.59-.63A3.38,3.38,0,0,1,42,11a1.28,1.28,0,0,1,.68-.21.62.62,0,0,1,.46.17.57.57,0,0,1,.16.42.89.89,0,0,1-.11.37c-.08.15-.17.3-.28.47l-.37.51c-.13.17-.26.33-.37.49s-.2.29-.28.42a.64.64,0,0,0-.11.32c0,.19.09.28.27.28a1.37,1.37,0,0,0,.68-.21,4.63,4.63,0,0,0,.85-.72c.13-.13.26-.28.4-.44a5.71,5.71,0,0,0,.39-.47c.13-.15.24-.3.34-.44l.25-.34.06,0-.5.7a10.41,10.41,0,0,1-.68.81l-.45.46a5,5,0,0,1-.45.38,3.11,3.11,0,0,1-.46.26,1.12,1.12,0,0,1-.44.09.67.67,0,0,1-.47-.16.51.51,0,0,1-.19-.43,1.16,1.16,0,0,1,.24-.65c.16-.24.33-.47.52-.71l.53-.68a1.06,1.06,0,0,0,.24-.58.22.22,0,0,0-.08-.18.37.37,0,0,0-.21-.06,1.07,1.07,0,0,0-.56.19,4.05,4.05,0,0,0-.63.48c-.21.2-.43.43-.64.67s-.41.5-.6.75-.35.48-.49.71a4.89,4.89,0,0,0-.33.57h-.61c.17-.29.35-.59.54-.89l.58-.89c.2-.29.38-.58.55-.85s.34-.52.47-.75Z"/><path class="cls-3" d="M46.06,10.89c-.25.35-.5.69-.74,1s-.45.61-.63.87-.33.5-.44.69a1.09,1.09,0,0,0-.17.46.33.33,0,0,0,.08.24.31.31,0,0,0,.21.07.86.86,0,0,0,.41-.12,3.58,3.58,0,0,0,.46-.3l.45-.42q.23-.22.42-.45l.34-.41.21-.3.87-1.33h.68l-.9,1.25c-.25.34-.45.62-.61.86a5.83,5.83,0,0,0-.33.58,1.12,1.12,0,0,0-.1.39.38.38,0,0,0,.07.21.28.28,0,0,0,.2.08,1.08,1.08,0,0,0,.46-.14,3.3,3.3,0,0,0,.53-.38,5.32,5.32,0,0,0,.55-.52l.52-.58c.16-.2.3-.38.44-.54l.3-.41.1,0-.31.43c-.14.17-.28.36-.45.55l-.52.6a5.52,5.52,0,0,1-.57.53,4.66,4.66,0,0,1-.58.4,1.13,1.13,0,0,1-.53.15.63.63,0,0,1-.44-.15.54.54,0,0,1-.16-.41,1.27,1.27,0,0,1,.06-.39c0-.12.08-.2.09-.23v0c-.14.16-.29.31-.44.46a4,4,0,0,1-.46.38,2.35,2.35,0,0,1-.46.26,1.09,1.09,0,0,1-.46.1.62.62,0,0,1-.45-.14.5.5,0,0,1-.14-.35,1.25,1.25,0,0,1,.13-.53,6.77,6.77,0,0,1,.37-.65l.57-.8c.22-.29.47-.63.73-1Z"/><path class="cls-3" d="M47.59,14.3c.15-.24.31-.51.5-.8l.57-.89.58-.89c.19-.29.36-.57.51-.83h.6l-1.3,1.85,0,0,.45-.57a7,7,0,0,1,.59-.63A4.23,4.23,0,0,1,50.8,11a1.48,1.48,0,0,1,.75-.22.61.61,0,0,1,.39.13.41.41,0,0,1,.16.36,1,1,0,0,1-.1.34l-.23.4-.28.39c-.09.12-.16.23-.21.31v0a7.89,7.89,0,0,1,.51-.64,7.36,7.36,0,0,1,.62-.63A4.22,4.22,0,0,1,53.1,11a1.42,1.42,0,0,1,.68-.2.6.6,0,0,1,.43.14.5.5,0,0,1,.15.39.86.86,0,0,1-.12.39,2.85,2.85,0,0,1-.29.49c-.11.16-.23.33-.37.51l-.37.49-.29.44a.82.82,0,0,0-.11.34.24.24,0,0,0,.26.26,1.13,1.13,0,0,0,.56-.19,4.44,4.44,0,0,0,.69-.52,10.24,10.24,0,0,0,.78-.81c.27-.31.54-.66.82-1l.08.05c-.27.37-.54.71-.81,1a11,11,0,0,1-.79.84,4.76,4.76,0,0,1-.73.56,1.38,1.38,0,0,1-.65.2.59.59,0,0,1-.46-.17.65.65,0,0,1-.15-.44,1,1,0,0,1,.12-.42,3.23,3.23,0,0,1,.29-.48c.11-.16.24-.33.37-.49l.37-.48.29-.41a.72.72,0,0,0,.11-.31.21.21,0,0,0-.08-.19.26.26,0,0,0-.18-.06,1,1,0,0,0-.46.14,2.84,2.84,0,0,0-.56.37,5.25,5.25,0,0,0-.6.57,6.75,6.75,0,0,0-.6.69,8.43,8.43,0,0,0-.55.78c-.17.28-.32.55-.45.82h-.63q.27-.5.6-1c.21-.33.41-.64.6-.92s.34-.52.46-.73a1,1,0,0,0,.19-.46c0-.18-.09-.27-.28-.27a1,1,0,0,0-.55.19,4.11,4.11,0,0,0-.63.47c-.21.2-.41.42-.62.66s-.4.5-.58.75-.34.49-.48.72-.25.42-.33.58Z"/><path class="cls-4" d="M17.61,4.17a4.27,4.27,0,0,0,1-.12,4.29,4.29,0,0,0,1-.35,2.78,2.78,0,0,0,.76-.58,1.17,1.17,0,0,0,.3-.8.54.54,0,0,0-.16-.43A.6.6,0,0,0,20,1.74a1.82,1.82,0,0,0-.88.24,3.91,3.91,0,0,0-.81.61,6.41,6.41,0,0,0-.69.78,8.1,8.1,0,0,0-.52.78h.51Z"/><path class="cls-4" d="M15.39,6.72a7.23,7.23,0,0,1-.86.89,4.11,4.11,0,0,1-1.21.73l0,0,.17,0h.22a1.42,1.42,0,0,1,1,.32,1.42,1.42,0,0,1,.4.81,3.57,3.57,0,0,1,.27-.28A7.52,7.52,0,0,0,15.39,6.72Z"/><path class="cls-4" d="M14.83,10.13a.48.48,0,0,1-.34.21c-.09,0-.13,0-.13-.11a.16.16,0,0,1,0-.12l.08-.1a.44.44,0,0,0,.08-.11.41.41,0,0,0,0-.16,1.43,1.43,0,0,0-.1-.56,1.39,1.39,0,0,0-.31-.41,1.31,1.31,0,0,0-.45-.25,1.73,1.73,0,0,0-.56-.08.87.87,0,0,0-.28.05l-.41.13c-.16.06-.32.1-.49.15a2,2,0,0,1-.48.06.45.45,0,0,1-.2,0,.12.12,0,0,1-.08-.12c0-.05,0-.09.12-.13a1.07,1.07,0,0,1,.3-.09,2.7,2.7,0,0,1,.41-.06l.44,0,.4,0h.27a2.4,2.4,0,0,0,.91-.57,6.78,6.78,0,0,0,.8-1c.13-.19.26-.41.39-.62a7.44,7.44,0,0,0-2-3.46,7.51,7.51,0,1,0,0,10.62,7.44,7.44,0,0,0,2.07-4l-.26.29A1.53,1.53,0,0,1,14.83,10.13Z"/><path class="cls-1" d="M18.65,6.16l-.78.71-.95.84L16,8.57l0,0v.16c.3-.3.63-.61,1-.92l1.05-1,.47-.43h0Z"/><path class="cls-2" d="M15.78,6.21c-.09.13-.18.27-.28.4a1.14,1.14,0,0,1-.11.11,7.52,7.52,0,0,1,0,2.46l0,.16a7.44,7.44,0,0,1-2.07,4,7.51,7.51,0,1,1,0-10.62,7.44,7.44,0,0,1,2,3.46c.12-.18.23-.35.35-.55A8,8,0,1,0,16,8.76V8.6A8,8,0,0,0,15.78,6.21Z"/><path class="cls-1" d="M20.71,1.79a1,1,0,0,0-.6-.17,2.78,2.78,0,0,0-1.05.22,5.15,5.15,0,0,0-1,.58,6.52,6.52,0,0,0-.86.8,6.18,6.18,0,0,0-.66.86A1.83,1.83,0,0,1,16,3.94a1.59,1.59,0,0,1-.48-.31,1.79,1.79,0,0,1-.34-.44,1.21,1.21,0,0,1-.12-.53.78.78,0,0,1,.07-.33,1.17,1.17,0,0,1,.19-.3.78.78,0,0,1,.29-.21A1,1,0,0,1,16,1.74a1.29,1.29,0,0,1,.35,0,1.83,1.83,0,0,1,.28.1l0-.11a1.5,1.5,0,0,0-.3-.1,1.36,1.36,0,0,0-.36,0,1,1,0,0,0-.41.09.91.91,0,0,0-.34.22,1,1,0,0,0-.22.33.93.93,0,0,0-.09.4,1.37,1.37,0,0,0,.12.58,1.57,1.57,0,0,0,.34.46,1.8,1.8,0,0,0,.49.32,2.37,2.37,0,0,0,.59.18c-.29.45-.56.89-.82,1.34l0,.06c-.12.2-.23.37-.35.55s-.26.43-.39.62a6.78,6.78,0,0,1-.8,1,2.4,2.4,0,0,1-.91.57H12.9l-.4,0-.44,0a2.7,2.7,0,0,0-.41.06,1.07,1.07,0,0,0-.3.09c-.08,0-.12.08-.12.13a.12.12,0,0,0,.08.12.45.45,0,0,0,.2,0A2,2,0,0,0,12,8.77c.17,0,.33-.09.49-.15l.41-.13a.87.87,0,0,1,.28-.05,1.73,1.73,0,0,1,.56.08,1.31,1.31,0,0,1,.45.25,1.39,1.39,0,0,1,.31.41,1.43,1.43,0,0,1,.1.56.41.41,0,0,1,0,.16.44.44,0,0,1-.08.11l-.08.1a.16.16,0,0,0,0,.12c0,.07,0,.11.13.11a.48.48,0,0,0,.34-.21,1.53,1.53,0,0,0,.29-.5l.26-.29,0-.16a3.57,3.57,0,0,0-.27.28,1.42,1.42,0,0,0-.4-.81,1.42,1.42,0,0,0-1-.32h-.22l-.17,0,0,0a4.11,4.11,0,0,0,1.21-.73,7.23,7.23,0,0,0,.86-.89,1.14,1.14,0,0,0,.11-.11c.1-.13.19-.27.28-.4s.37-.49.53-.76.5-.8.74-1.18h.54A4.66,4.66,0,0,0,18.9,4.1,4.21,4.21,0,0,0,20,3.63,3,3,0,0,0,20.68,3a1.14,1.14,0,0,0,.25-.67A.61.61,0,0,0,20.71,1.79ZM20.3,3.12a2.78,2.78,0,0,1-.76.58,4.29,4.29,0,0,1-1,.35,4.27,4.27,0,0,1-1,.12H17.1a8.1,8.1,0,0,1,.52-.78,6.41,6.41,0,0,1,.69-.78A3.91,3.91,0,0,1,19.12,2,1.82,1.82,0,0,1,20,1.74a.6.6,0,0,1,.44.15.54.54,0,0,1,.16.43A1.17,1.17,0,0,1,20.3,3.12Z"/><path class="cls-1" d="M20.23,7.05c-.16.18-.34.37-.52.55a6.62,6.62,0,0,1-.58.52,4.08,4.08,0,0,1-.55.37.92.92,0,0,1-.46.14c-.14,0-.21-.08-.21-.25A.82.82,0,0,1,18,8a6,6,0,0,1,.33-.56l.61-.9.92-1.31h-.63l-.6.89.12-.11.05.06-.37.35-.54.81a3.2,3.2,0,0,0-.3.57,1.19,1.19,0,0,0-.09.44.44.44,0,0,0,.13.32.47.47,0,0,0,.39.15,1.1,1.1,0,0,0,.52-.14,3.4,3.4,0,0,0,.58-.36,6.87,6.87,0,0,0,.59-.52l.36-.39.09-.2A.41.41,0,0,1,20.23,7.05Z"/><path class="cls-1" d="M20.23,3.52a.34.34,0,0,0,0,.46.31.31,0,0,0,.46,0,.34.34,0,0,0,0-.46.31.31,0,0,0-.46,0Z"/><path class="cls-1" d="M18.77,6.05l-.12.11-.2.29h0l.37-.35Z"/><path class="cls-1" d="M24.94,6.46a1.08,1.08,0,0,1-.53.14A.87.87,0,0,1,24,6.49a.83.83,0,0,1-.3-.22,3,3,0,0,0,0-.44.87.87,0,0,0-.1-.46.29.29,0,0,0-.26-.18.23.23,0,0,0-.21.09.35.35,0,0,0-.07.23.59.59,0,0,0,.05.23.41.41,0,0,1,0,.21,1.82,1.82,0,0,1-.23.78,5,5,0,0,1-.58.88,3.74,3.74,0,0,1-.76.73,1.3,1.3,0,0,1-.77.29.41.41,0,0,1-.3-.12.44.44,0,0,1-.12-.32,1.18,1.18,0,0,1,.05-.31,1.83,1.83,0,0,1,.19-.43,7.54,7.54,0,0,1,.4-.69l.69-1.07,1.05-1.61,1.47-2.26-.65,0-1.35,2-1,1.49-.67,1.06c-.15.24-.27.44-.36.62V7a6.77,6.77,0,0,0,.45-.54A4.21,4.21,0,0,0,21,6.06l.08.05a5,5,0,0,1-.32.47,5.75,5.75,0,0,1-.46.57l-.18.19L20,7.62a1.22,1.22,0,0,0-.06.35.7.7,0,0,0,.25.58.85.85,0,0,0,.59.2,2.05,2.05,0,0,0,.87-.21A3.86,3.86,0,0,0,22.47,8a4.3,4.3,0,0,0,.71-.77,3.09,3.09,0,0,0,.43-.82,1.65,1.65,0,0,0,.36.22,1.26,1.26,0,0,0,.43.08A1.09,1.09,0,0,0,25,6.55c.05-.08.1-.17.16-.25S25,6.41,24.94,6.46Z"/><path class="cls-1" d="M20.73,6.58a5,5,0,0,0,.32-.47L21,6.06a4.21,4.21,0,0,1-.28.43,6.77,6.77,0,0,1-.45.54v0a.41.41,0,0,0-.05.09l-.09.2.18-.19A5.75,5.75,0,0,0,20.73,6.58Z"/><path class="cls-1" d="M28.22,6.43a1.15,1.15,0,0,1-.27.14.72.72,0,0,1-.29.06.34.34,0,0,1-.28-.13.48.48,0,0,1-.12-.35,1,1,0,0,1,.16-.53,2.94,2.94,0,0,1,.33-.41l-.18,0h-.19a.35.35,0,0,0-.24.06,1,1,0,0,0-.1.15c-.18.12-.36.26-.55.41L26,6.27c-.17.16-.32.31-.46.46s-.26.28-.36.39l0,0,1.26-1.83h-.6c-.23.35-.45.69-.66,1a1.55,1.55,0,0,0,.23-.21l.07.07a1.94,1.94,0,0,1-.42.37l0,0c-.1.14-.19.29-.28.43L23.61,8.67h.64a7.14,7.14,0,0,1,.37-.73A3.24,3.24,0,0,1,25,7.37c.36-.41.7-.77,1-1.07a8.27,8.27,0,0,1,.9-.73l0,0a.79.79,0,0,0-.11.43.73.73,0,0,0,.19.54.69.69,0,0,0,.51.19,1.07,1.07,0,0,0,.35-.06,1.82,1.82,0,0,0,.31-.16,2.44,2.44,0,0,1,.16-.23Z"/><path class="cls-1" d="M25.42,6.16l-.07-.07a1.55,1.55,0,0,1-.23.21c-.06.08-.11.17-.16.25l0,0A1.94,1.94,0,0,0,25.42,6.16Z"/><path class="cls-4" d="M28.82,7.6a6.47,6.47,0,0,0-1,.63s0,0,0,.06a.28.28,0,0,0,.08.23s.06,0,.09,0a12.74,12.74,0,0,1,.87-.94Z"/><path class="cls-4" d="M27.43,8.55c-.21.17-.41.33-.61.52s-.63.63-.93,1-.59.7-.87,1.06h1.33a12.75,12.75,0,0,1,1-1.8c.13-.19.28-.37.43-.56a.57.57,0,0,1-.37-.13Z"/><path class="cls-1" d="M32.31,7l-.51.58c-.19.19-.37.37-.55.52a3.86,3.86,0,0,1-.54.38.9.9,0,0,1-.46.14.21.21,0,0,1-.19-.08.29.29,0,0,1-.07-.2.87.87,0,0,1,.1-.39,3.09,3.09,0,0,1,.33-.58q.22-.36.6-.87l.91-1.24h-.68l-.88,1.32a1.68,1.68,0,0,1-.21.3l-.34.41a5.57,5.57,0,0,1-.41.45,6,6,0,0,1-.46.42,2.68,2.68,0,0,1-.37.25l-.15.2a2.12,2.12,0,0,0,.41-.23A3.79,3.79,0,0,0,29.29,8a4.78,4.78,0,0,0,.44-.46l0,0a2.21,2.21,0,0,0-.09.24,1,1,0,0,0-.07.38.57.57,0,0,0,.16.41.64.64,0,0,0,.45.15,1.09,1.09,0,0,0,.52-.15,3.68,3.68,0,0,0,.58-.39,7.08,7.08,0,0,0,.57-.54c.09-.1.16-.19.25-.28s.17-.27.26-.41l.18-.27Z"/><path class="cls-3" d="M29.59,11.68l-.29.39-.43.51c-.16.18-.32.37-.5.55s-.35.35-.53.51a3.46,3.46,0,0,1-.51.36.93.93,0,0,1-.43.14.42.42,0,0,1-.42-.21,1.17,1.17,0,0,1-.11-.52,3.6,3.6,0,0,1,.15-1,8.23,8.23,0,0,1,.38-1.12c.17-.38.35-.77.56-1.16s.44-.76.67-1.12l.3-.41.15-.2c.09-.12.18-.26.27-.37a7.76,7.76,0,0,1,.7-.76l0,0a5.22,5.22,0,0,0-1.05.44c-.22.13-.43.29-.64.44a.44.44,0,0,0,0,.1,6.47,6.47,0,0,1,1-.63l0,0a12.74,12.74,0,0,0-.87.94l-.14.18c-.15.19-.3.37-.43.56a12.75,12.75,0,0,0-1,1.8H25c.28-.36.57-.72.87-1.06s.61-.67.93-1,.4-.35.61-.52a.16.16,0,0,1-.06-.08,10.38,10.38,0,0,0-.78.69c-.28.29-.54.56-.78.83s-.45.52-.64.75l-.47.59c-.29.36-.59.7-.91,1a10,10,0,0,1-1,.91,4.87,4.87,0,0,1-.95.65,1.85,1.85,0,0,1-.89.25,1.19,1.19,0,0,1-.33,0,.4.4,0,0,1-.25-.19.19.19,0,0,0,.14-.11.34.34,0,0,0,.05-.17.39.39,0,0,0-.09-.26.31.31,0,0,0-.25-.11.32.32,0,0,0-.27.12.41.41,0,0,0-.1.29.81.81,0,0,0,0,.2.59.59,0,0,0,.14.22.85.85,0,0,0,.3.18,1.48,1.48,0,0,0,.52.07,2.28,2.28,0,0,0,1-.26,5.29,5.29,0,0,0,1-.71,10.85,10.85,0,0,0,1-1c.34-.38.67-.77,1-1.18H26.3a10.35,10.35,0,0,0-.36,1,3.6,3.6,0,0,0-.16,1.09,1.75,1.75,0,0,0,0,.4,1,1,0,0,0,.16.33.67.67,0,0,0,.27.23.82.82,0,0,0,.4.09,1.39,1.39,0,0,0,.75-.26,5,5,0,0,0,.78-.65c.25-.26.51-.55.76-.86l.71-.91Z"/><path class="cls-1" d="M29.13,5.27l-.73,1h0l.08-.06.21-.18.06,0c-.07.06-.14.14-.23.21a1.86,1.86,0,0,1-.28.21h0c-.15.19-.29.39-.4.56a5.09,5.09,0,0,0-.37.64,1.27,1.27,0,0,0-.14.54.46.46,0,0,0,.05.2.16.16,0,0,0,.06.08l0,.06a.57.57,0,0,0,.37.13L28,8.56s-.07,0-.09,0a.28.28,0,0,1-.08-.23s0,0,0-.06a.44.44,0,0,1,0-.1,2.27,2.27,0,0,1,.13-.3c.11-.2.26-.43.44-.69s.4-.56.64-.87l.74-1Z"/><path class="cls-1" d="M28.51,6.31c.09-.07.16-.15.23-.21l-.06,0-.21.18-.08.06a2.44,2.44,0,0,0-.16.23h0A1.86,1.86,0,0,0,28.51,6.31Z"/><path class="cls-1" d="M39.63,6.08c-.27.38-.55.72-.82,1a7.65,7.65,0,0,1-.78.81,4.12,4.12,0,0,1-.69.53,1.17,1.17,0,0,1-.56.18.24.24,0,0,1-.18-.07.22.22,0,0,1-.08-.18A.73.73,0,0,1,36.64,8a3.65,3.65,0,0,1,.29-.44c.11-.15.23-.32.37-.49l.37-.51A4.2,4.2,0,0,0,38,6.11a.89.89,0,0,0,.12-.4.49.49,0,0,0-.15-.38.54.54,0,0,0-.43-.14,1.37,1.37,0,0,0-.67.19,3.49,3.49,0,0,0-.69.49,6,6,0,0,0-.62.62,7.61,7.61,0,0,0-.5.64l0,0c0-.08.12-.18.22-.31s.18-.25.27-.39a2.73,2.73,0,0,0,.23-.4.72.72,0,0,0,.1-.34.43.43,0,0,0-.15-.36.65.65,0,0,0-.39-.12,1.53,1.53,0,0,0-.76.21,4.88,4.88,0,0,0-.69.53,5.78,5.78,0,0,0-.58.64l-.46.56,0,0,1.31-1.84h-.61c-.15.25-.32.53-.51.82l-.39.62.19-.24.31-.41.1,0-.32.43c-.13.17-.28.36-.45.55s-.18.21-.27.32l-.32.48-.5.8H32l.32-.58c.14-.22.3-.46.49-.71s.37-.5.57-.75A8.23,8.23,0,0,1,34,6a4.06,4.06,0,0,1,.62-.47,1.14,1.14,0,0,1,.56-.18.24.24,0,0,1,.27.26,1,1,0,0,1-.18.46c-.13.21-.28.46-.47.74l-.6.91q-.31.5-.6,1h.64a6.45,6.45,0,0,1,.44-.81,9.21,9.21,0,0,1,.55-.79l.6-.69c.21-.21.41-.4.6-.56A2.52,2.52,0,0,1,37,5.44a1,1,0,0,1,.47-.13.27.27,0,0,1,.18.05.22.22,0,0,1,.07.19.68.68,0,0,1-.11.31,4,4,0,0,1-.29.42c-.11.15-.24.31-.37.47s-.26.33-.37.5a3.07,3.07,0,0,0-.29.48,1,1,0,0,0-.11.42.64.64,0,0,0,.15.43.53.53,0,0,0,.45.17,1.25,1.25,0,0,0,.65-.2A3.85,3.85,0,0,0,38.11,8a9.32,9.32,0,0,0,.79-.84c.27-.32.54-.66.81-1Z"/><path class="cls-1" d="M32.84,6.52l.32-.43-.1,0-.31.41-.19.24L32.38,7c-.09.14-.18.27-.26.41.09-.11.19-.21.27-.32S32.71,6.69,32.84,6.52Z"/></svg>