<?xml version="1.0" encoding="utf-8"?>
<!-- Generator: Adobe Illustrator 19.2.1, SVG Export Plug-In . SVG Version: 6.00 Build 0)  -->
<svg version="1.1" xmlns="http://www.w3.org/2000/svg" xmlns:xlink="http://www.w3.org/1999/xlink" x="0px" y="0px"
	 viewBox="0 0 435 152.2" style="enable-background:new 0 0 435 152.2;" xml:space="preserve">
<style type="text/css">
	.st0{fill:#878787;}
	.st1{fill:none;stroke:#333333;stroke-miterlimit:10;}
	.st2{fill:#0A3F7F;}
	.st3{fill:url(#SVGID_1_);}
	.st4{fill:url(#SVGID_2_);}
	.st5{fill:url(#SVGID_3_);}
	.st6{fill:url(#SVGID_4_);}
	.st7{fill:url(#SVGID_5_);}
	.st8{fill:url(#SVGID_6_);}
	.st9{fill:url(#SVGID_7_);}
	.st10{fill:url(#SVGID_8_);}
	.st11{fill:url(#SVGID_9_);}
	.st12{fill:url(#SVGID_10_);}
	.st13{fill:url(#SVGID_11_);}
	.st14{fill:url(#SVGID_12_);}
	.st15{fill:url(#SVGID_13_);}
	.st16{fill:url(#SVGID_14_);}
	.st17{fill:url(#SVGID_15_);}
	.st18{fill:url(#SVGID_16_);}
	.st19{fill:none;stroke:#0A3F7F;stroke-miterlimit:10;}
	.st20{fill:url(#SVGID_17_);}
	.st21{fill:url(#SVGID_18_);}
	.st22{fill:url(#SVGID_19_);}
	.st23{fill:url(#SVGID_20_);}
	.st24{fill:url(#SVGID_21_);}
	.st25{fill:url(#SVGID_22_);}
	.st26{fill:url(#SVGID_23_);}
	.st27{fill:url(#SVGID_24_);}
	.st28{fill:url(#SVGID_25_);}
	.st29{fill:url(#SVGID_26_);}
	.st30{fill:url(#SVGID_27_);}
	.st31{fill:url(#SVGID_28_);}
	.st32{fill:url(#SVGID_29_);}
	.st33{fill:url(#SVGID_30_);}
	.st34{fill:url(#SVGID_31_);}
	.st35{fill:url(#SVGID_32_);}
</style>
<g id="Logotype_Grayscale">
</g>
<g id="Logotype_Color">
	<g>
		<path class="st2" d="M145.5,47.3h3.4l17,41h-4.3l-5.3-12.8h-18.4l-5.3,12.8h-4.3L145.5,47.3z M155.4,72.3L147.2,52l-8.4,20.3
			H155.4z"/>
		<path class="st2" d="M193.1,88.3h-3.9V71.5c0-3.6-0.5-6.2-1.6-7.8c-1.1-1.6-2.7-2.4-4.9-2.4c-1.2,0-2.3,0.2-3.5,0.6
			c-1.2,0.4-2.2,1-3.2,1.8c-1,0.8-1.9,1.7-2.6,2.7c-0.8,1.1-1.3,2.2-1.7,3.4v18.4h-3.9V58.2h3.6V65c1.2-2.2,3-4,5.3-5.3
			c2.3-1.3,4.8-2,7.5-2c1.7,0,3.1,0.3,4.2,0.9c1.2,0.6,2.1,1.5,2.8,2.6c0.7,1.1,1.2,2.5,1.5,4.1c0.3,1.6,0.5,3.4,0.5,5.4V88.3z"/>
		<path class="st2" d="M210,88.9c-2.1,0-4-0.4-5.8-1.3c-1.8-0.9-3.3-2-4.6-3.4c-1.3-1.4-2.3-3.1-3-4.9c-0.7-1.9-1.1-3.8-1.1-5.9
			c0-2.1,0.3-4.1,1-6c0.7-1.9,1.6-3.6,2.9-5c1.2-1.4,2.7-2.5,4.3-3.4c1.7-0.8,3.5-1.2,5.5-1.2c2.5,0,4.8,0.7,6.8,2
			c2,1.3,3.5,2.9,4.6,4.8V46.1h3.9v37.1c0,1.1,0.5,1.6,1.4,1.6v3.5c-0.6,0.1-1,0.2-1.4,0.2c-0.9,0-1.7-0.3-2.4-0.9
			c-0.7-0.6-1-1.3-1-2.2v-2.9c-1.2,2-2.8,3.5-4.9,4.7C214.4,88.3,212.2,88.9,210,88.9z M210.9,85.4c1,0,2-0.2,3.1-0.6
			c1.1-0.4,2.1-0.9,3.1-1.6c1-0.7,1.8-1.5,2.5-2.4c0.7-0.9,1.1-1.9,1.2-2.9v-9.3c-0.4-1-0.9-2-1.7-2.9c-0.7-0.9-1.6-1.7-2.5-2.4
			c-0.9-0.7-2-1.2-3-1.6c-1.1-0.4-2.1-0.6-3.2-0.6c-1.6,0-3.1,0.3-4.4,1c-1.3,0.7-2.4,1.6-3.4,2.7c-0.9,1.1-1.7,2.4-2.2,3.9
			c-0.5,1.5-0.8,3-0.8,4.5c0,1.6,0.3,3.2,0.9,4.6c0.6,1.5,1.4,2.7,2.4,3.8c1,1.1,2.2,2,3.6,2.6C207.9,85.1,209.3,85.4,210.9,85.4z"
			/>
		<path class="st2" d="M244.8,61.7c-2.7,0.1-5,0.8-6.9,2.2c-2,1.4-3.3,3.3-4.2,5.7v18.7h-3.9V58.2h3.7v7.2c1.1-2.3,2.6-4.1,4.5-5.4
			c1.9-1.3,3.9-2,6.1-2c0.3,0,0.6,0,0.8,0.1V61.7z"/>
		<path class="st2" d="M258.2,88.9c-2.2,0-4.2-0.4-6-1.2c-1.8-0.8-3.4-2-4.7-3.4c-1.3-1.4-2.4-3.1-3.1-5c-0.7-1.9-1.1-3.9-1.1-5.9
			c0-2.1,0.4-4.1,1.1-6c0.8-1.9,1.8-3.5,3.1-5c1.3-1.4,2.9-2.6,4.7-3.4c1.8-0.8,3.8-1.3,5.9-1.3s4.1,0.4,6,1.3
			c1.8,0.8,3.4,2,4.7,3.4c1.3,1.4,2.4,3.1,3.1,5c0.8,1.9,1.1,3.9,1.1,6c0,2.1-0.4,4.1-1.1,5.9c-0.7,1.9-1.8,3.5-3.1,5
			c-1.3,1.4-2.9,2.6-4.7,3.4C262.4,88.4,260.4,88.9,258.2,88.9z M247.3,73.4c0,1.7,0.3,3.3,0.9,4.7c0.6,1.4,1.4,2.7,2.3,3.8
			s2.1,2,3.5,2.6c1.3,0.6,2.7,0.9,4.2,0.9c1.5,0,2.9-0.3,4.2-1s2.5-1.5,3.5-2.6s1.8-2.4,2.4-3.8c0.6-1.5,0.9-3,0.9-4.7
			c0-1.7-0.3-3.2-0.9-4.7c-0.6-1.5-1.4-2.8-2.4-3.9s-2.2-2-3.5-2.6s-2.7-1-4.2-1c-1.5,0-2.9,0.3-4.2,1c-1.3,0.6-2.5,1.5-3.5,2.6
			c-1,1.1-1.8,2.4-2.4,3.9C247.6,70.1,247.3,71.7,247.3,73.4z"/>
		<path class="st2" d="M320.7,88.3h-3.9V71.5c0-3.5-0.6-6.1-1.7-7.7c-1.1-1.7-2.8-2.5-5-2.5c-1.2,0-2.2,0.2-3.3,0.6
			c-1,0.4-2,1-2.8,1.8c-0.9,0.8-1.6,1.7-2.3,2.7c-0.7,1.1-1.2,2.2-1.5,3.5v18.4h-3.9V71.5c0-3.6-0.5-6.2-1.6-7.8
			c-1.1-1.6-2.7-2.4-5-2.4c-2.3,0-4.3,0.8-6.1,2.4c-1.8,1.6-3,3.7-3.8,6.2v18.4h-3.9V58.2h3.6V65c1.2-2.3,2.8-4.1,4.9-5.4
			c2-1.3,4.2-1.9,6.6-1.9c2.5,0,4.6,0.7,6.1,2.1c1.5,1.4,2.5,3.3,2.8,5.6c2.8-5.2,6.7-7.7,11.6-7.7c1.7,0,3.1,0.3,4.3,0.9
			c1.2,0.6,2.1,1.5,2.8,2.6c0.7,1.1,1.2,2.5,1.6,4.1c0.3,1.6,0.5,3.4,0.5,5.3V88.3z"/>
		<path class="st2" d="M337.5,88.9c-2.2,0-4.2-0.4-6-1.2c-1.8-0.8-3.4-2-4.8-3.4c-1.3-1.4-2.4-3.1-3.1-5c-0.8-1.9-1.1-3.9-1.1-6.1
			c0-2.1,0.4-4.1,1.1-6c0.8-1.9,1.8-3.5,3.1-4.9c1.3-1.4,2.9-2.5,4.8-3.3c1.8-0.8,3.8-1.2,6-1.2c2.2,0,4.2,0.4,6,1.2
			c1.8,0.8,3.4,2,4.7,3.4c1.3,1.4,2.3,3.1,3.1,4.9c0.7,1.8,1.1,3.8,1.1,5.9c0,0.3,0,0.6,0,0.9s0,0.5-0.1,0.6h-25.8
			c0.1,1.6,0.5,3.1,1.1,4.5c0.6,1.4,1.5,2.6,2.5,3.6c1,1,2.1,1.8,3.4,2.3c1.3,0.6,2.7,0.8,4.1,0.8c1,0,1.9-0.1,2.9-0.4
			c1-0.3,1.8-0.6,2.7-1.1s1.5-1,2.2-1.7c0.7-0.7,1.2-1.4,1.5-2.2l3.4,0.9c-0.5,1.1-1.1,2.1-2,3c-0.8,0.9-1.8,1.7-2.9,2.4
			c-1.1,0.7-2.3,1.2-3.7,1.6C340.4,88.7,339,88.9,337.5,88.9z M348.6,71.6c-0.1-1.6-0.5-3.1-1.1-4.4c-0.6-1.3-1.4-2.5-2.4-3.4
			c-1-1-2.1-1.7-3.4-2.3c-1.3-0.5-2.7-0.8-4.1-0.8c-1.5,0-2.8,0.3-4.2,0.8c-1.3,0.5-2.5,1.3-3.4,2.3c-1,1-1.8,2.1-2.4,3.5
			c-0.6,1.3-1,2.8-1.1,4.4H348.6z"/>
		<path class="st2" d="M368.9,88.9c-2.1,0-4-0.4-5.8-1.3c-1.8-0.9-3.3-2-4.6-3.4c-1.3-1.4-2.3-3.1-3-4.9c-0.7-1.9-1.1-3.8-1.1-5.9
			c0-2.1,0.3-4.1,1-6c0.7-1.9,1.6-3.6,2.9-5c1.2-1.4,2.7-2.5,4.3-3.4c1.7-0.8,3.5-1.2,5.5-1.2c2.5,0,4.8,0.7,6.8,2
			c2,1.3,3.5,2.9,4.6,4.8V46.1h3.9v37.1c0,1.1,0.5,1.6,1.4,1.6v3.5c-0.6,0.1-1,0.2-1.4,0.2c-0.9,0-1.7-0.3-2.4-0.9
			c-0.7-0.6-1-1.3-1-2.2v-2.9c-1.2,2-2.8,3.5-4.9,4.7C373.2,88.3,371.1,88.9,368.9,88.9z M369.8,85.4c1,0,2-0.2,3.1-0.6
			c1.1-0.4,2.1-0.9,3.1-1.6c1-0.7,1.8-1.5,2.5-2.4c0.7-0.9,1.1-1.9,1.2-2.9v-9.3c-0.4-1-0.9-2-1.7-2.9c-0.7-0.9-1.6-1.7-2.5-2.4
			c-0.9-0.7-2-1.2-3-1.6c-1.1-0.4-2.1-0.6-3.2-0.6c-1.6,0-3.1,0.3-4.4,1c-1.3,0.7-2.4,1.6-3.4,2.7c-0.9,1.1-1.7,2.4-2.2,3.9
			c-0.5,1.5-0.8,3-0.8,4.5c0,1.6,0.3,3.2,0.9,4.6c0.6,1.5,1.4,2.7,2.4,3.8c1,1.1,2.2,2,3.6,2.6C366.7,85.1,368.2,85.4,369.8,85.4z"
			/>
		<path class="st2" d="M396.2,88.9c-1.4,0-2.7-0.2-4-0.7s-2.3-1.1-3.2-2c-0.9-0.8-1.6-1.8-2.1-3c-0.5-1.1-0.8-2.4-0.8-3.7
			c0-1.3,0.3-2.5,0.9-3.6c0.6-1.1,1.5-2.1,2.6-2.9c1.1-0.8,2.4-1.4,4-1.9c1.5-0.4,3.2-0.7,5.1-0.7c1.5,0,3.1,0.1,4.7,0.4
			c1.6,0.3,3,0.7,4.2,1.2v-2.7c0-2.7-0.8-4.8-2.3-6.3c-1.5-1.6-3.6-2.3-6.2-2.3c-1.5,0-3.1,0.3-4.7,0.9c-1.6,0.6-3.3,1.5-4.9,2.7
			l-1.4-2.6c3.9-2.6,7.7-3.9,11.3-3.9c3.8,0,6.7,1.1,8.9,3.2c2.2,2.1,3.2,5,3.2,8.8v13.6c0,1.1,0.5,1.6,1.4,1.6v3.5
			c-0.7,0.1-1.2,0.2-1.5,0.2c-1,0-1.8-0.2-2.3-0.8c-0.6-0.5-0.9-1.2-0.9-2.1l-0.1-2.4c-1.4,1.8-3.1,3.2-5.2,4.2
			S398.6,88.9,396.2,88.9z M397.1,85.9c2,0,3.9-0.4,5.6-1.2c1.7-0.8,3-1.8,3.9-3.1c0.3-0.3,0.6-0.7,0.8-1.1c0.2-0.4,0.3-0.8,0.3-1.1
			v-4.9c-1.3-0.5-2.7-0.9-4.1-1.2c-1.4-0.3-2.8-0.4-4.3-0.4c-2.8,0-5,0.6-6.8,1.7c-1.7,1.2-2.6,2.7-2.6,4.6c0,0.9,0.2,1.8,0.5,2.6
			c0.4,0.8,0.9,1.5,1.5,2.1c0.6,0.6,1.4,1.1,2.3,1.4C395.2,85.7,396.1,85.9,397.1,85.9z"/>
	</g>
	<g id="lines_2_">
		<g>
			<rect x="51.3" y="3" transform="matrix(0.273 -0.962 0.962 0.273 22.9953 61.7077)" class="st2" width="2" height="25.3"/>
		</g>
		<g>
			<rect x="73.6" y="16" transform="matrix(0.8319 -0.5549 0.5549 0.8319 -6.4391 47.1194)" class="st2" width="2" height="36.3"/>
		</g>
		<g>
			
				<rect x="63.1" y="69.9" transform="matrix(0.6143 -0.7891 0.7891 0.6143 -27.7976 85.0266)" class="st2" width="19.9" height="2"/>
		</g>
		<g>
			<rect x="39.6" y="28.7" transform="matrix(0.5654 -0.8248 0.8248 0.5654 -32.4287 59.8429)" class="st2" width="2" height="64"/>
		</g>
		<g>
			<rect x="83.8" y="63.7" transform="matrix(0.164 -0.9865 0.9865 0.164 -9.7826 151.9504)" class="st2" width="2" height="36.1"/>
		</g>
		<g>
			
				<rect x="83.6" y="68.8" transform="matrix(0.5116 -0.8592 0.8592 0.5116 -35.3942 116.2454)" class="st2" width="2" height="40.9"/>
		</g>
		<g>
			
				<rect x="94.8" y="91.2" transform="matrix(2.782126e-02 -0.9996 0.9996 2.782126e-02 7.3159 191.9491)" class="st2" width="15" height="2"/>
		</g>
		<g>
			<rect x="87.8" y="53.8" transform="matrix(0.609 -0.7932 0.7932 0.609 5.6296 120.9669)" class="st2" width="75.5" height="2"/>
		</g>
		<g>
			
				<rect x="145.5" y="19.4" transform="matrix(0.7637 -0.6456 0.6456 0.7637 20.1016 99.8893)" class="st2" width="2" height="6.2"/>
		</g>
		<g>
			
				<rect x="143.1" y="9" transform="matrix(0.9978 -6.641419e-02 6.641419e-02 0.9978 -0.6502 9.6045)" class="st2" width="2" height="11.1"/>
		</g>
		<g>
			<rect x="148" y="20" transform="matrix(0.9738 -0.2276 0.2276 0.9738 -0.4456 38.0988)" class="st2" width="33.9" height="2"/>
		</g>
		<g>
			
				<rect x="118.6" y="83.2" transform="matrix(6.047027e-02 -0.9982 0.9982 6.047027e-02 11.8086 214.11)" class="st2" width="2" height="35.1"/>
		</g>
		<g>
			<rect x="102" y="99.6" transform="matrix(0.9734 -0.2293 0.2293 0.9734 -21.0025 26.381)" class="st2" width="2" height="7.9"/>
		</g>
		<g>
			
				<rect x="87.3" y="119.7" transform="matrix(0.225 -0.9744 0.9744 0.225 -39.4431 191.8501)" class="st2" width="27.2" height="2"/>
		</g>
		<g>
			
				<rect x="86.1" y="135.9" transform="matrix(0.8864 -0.463 0.463 0.8864 -52.8763 58.2901)" class="st2" width="12.4" height="2"/>
		</g>
		<g>
			<rect x="74.5" y="55.2" transform="matrix(0.367 -0.9302 0.9302 0.367 -0.4317 111.7561)" class="st2" width="14.9" height="2"/>
		</g>
	</g>
	<g id="stars_2_">
		
			<radialGradient id="SVGID_1_" cx="-154.1694" cy="146.7328" r="3.5929" gradientTransform="matrix(1.5909 0.5857 -0.6399 1.544 353.2443 -93.9315)" gradientUnits="userSpaceOnUse">
			<stop  offset="0" style="stop-color:#F7AA00"/>
			<stop  offset="1" style="stop-color:#F4BD64"/>
		</radialGradient>
		<path class="st3" d="M20.1,40.8c0.8,3.2-1.3,6.4-4.6,7.2c-3.3,0.8-6.6-1.1-7.4-4.3s1.3-6.4,4.6-7.2C16,35.8,19.3,37.7,20.1,40.8z"
			/>
		
			<radialGradient id="SVGID_2_" cx="-146.5915" cy="124.4946" r="2.6993" gradientTransform="matrix(1.5909 0.5857 -0.6399 1.544 353.2443 -93.9315)" gradientUnits="userSpaceOnUse">
			<stop  offset="0" style="stop-color:#F7AA00"/>
			<stop  offset="1" style="stop-color:#F4BD64"/>
		</radialGradient>
		<path class="st4" d="M44.9,11.3c0.6,2.4-0.9,4.8-3.4,5.4c-2.5,0.6-5-0.8-5.6-3.2s0.9-4.8,3.4-5.4S44.3,8.9,44.9,11.3z"/>
		
			<radialGradient id="SVGID_3_" cx="-124.5164" cy="133.8911" r="1.1236" gradientTransform="matrix(1.5789 0.5373 -0.6569 1.4754 349.052 -110.8888)" gradientUnits="userSpaceOnUse">
			<stop  offset="0" style="stop-color:#F7AA00"/>
			<stop  offset="1" style="stop-color:#F4BD64"/>
		</radialGradient>
		<path class="st5" d="M66.4,19.3c0.2,0.9-0.4,1.9-1.5,2.2c-1,0.3-2.1-0.3-2.3-1.2c-0.2-0.9,0.4-1.9,1.5-2.2
			C65.1,17.8,66.1,18.3,66.4,19.3z"/>
		
			<radialGradient id="SVGID_4_" cx="-114.2908" cy="136.1276" r="1.6955" gradientTransform="matrix(1.5909 0.5857 -0.6399 1.544 353.2443 -93.9315)" gradientUnits="userSpaceOnUse">
			<stop  offset="0" style="stop-color:#F7AA00"/>
			<stop  offset="1" style="stop-color:#F4BD64"/>
		</radialGradient>
		<path class="st6" d="M87.1,48.6c0.4,1.5-0.6,3-2.2,3.4c-1.6,0.4-3.1-0.5-3.5-2s0.6-3,2.2-3.4C85.2,46.2,86.8,47.1,87.1,48.6z"/>
		
			<radialGradient id="SVGID_5_" cx="-113.9533" cy="145.1312" r="2.3164" gradientTransform="matrix(1.5909 0.5857 -0.6399 1.544 353.2443 -93.9315)" gradientUnits="userSpaceOnUse">
			<stop  offset="0" style="stop-color:#F7AA00"/>
			<stop  offset="1" style="stop-color:#F4BD64"/>
		</radialGradient>
		<path class="st7" d="M83,62.4c0.5,2-0.8,4.1-2.9,4.7c-2.1,0.5-4.3-0.7-4.8-2.7c-0.5-2,0.8-4.1,2.9-4.7
			C80.3,59.2,82.4,60.4,83,62.4z"/>
		
			<radialGradient id="SVGID_6_" cx="-117.1108" cy="156.1896" r="4.7636" gradientTransform="matrix(1.5909 0.5857 -0.6399 1.544 353.2443 -93.9315)" gradientUnits="userSpaceOnUse">
			<stop  offset="0" style="stop-color:#F7AA00"/>
			<stop  offset="1" style="stop-color:#F4BD64"/>
		</radialGradient>
		<path class="st8" d="M74.9,76.7c1,4.2-1.7,8.5-6.1,9.6c-4.4,1.1-8.8-1.4-9.8-5.7s1.7-8.5,6.1-9.6C69.5,69.9,73.9,72.5,74.9,76.7z"
			/>
		
			<radialGradient id="SVGID_7_" cx="-96.4325" cy="152.1433" r="1.531" gradientTransform="matrix(1.5909 0.5857 -0.6399 1.544 353.2443 -93.9315)" gradientUnits="userSpaceOnUse">
			<stop  offset="0" style="stop-color:#F7AA00"/>
			<stop  offset="1" style="stop-color:#F4BD64"/>
		</radialGradient>
		<path class="st9" d="M105,83.9c0.3,1.4-0.5,2.7-1.9,3.1s-2.8-0.5-3.2-1.8c-0.3-1.4,0.5-2.7,1.9-3.1S104.7,82.5,105,83.9z"/>
		
			<radialGradient id="SVGID_8_" cx="-88.0209" cy="107.1537" r="1.6168" gradientTransform="matrix(1.5909 0.5857 -0.6399 1.544 353.2443 -93.9315)" gradientUnits="userSpaceOnUse">
			<stop  offset="0" style="stop-color:#F7AA00"/>
			<stop  offset="1" style="stop-color:#F4BD64"/>
		</radialGradient>
		<path class="st10" d="M147.3,19.3c0.4,1.4-0.6,2.9-2.1,3.3s-3-0.5-3.3-1.9s0.6-2.9,2.1-3.3S147,17.9,147.3,19.3z"/>
		
			<radialGradient id="SVGID_9_" cx="-84.9386" cy="109.1661" r="1.531" gradientTransform="matrix(1.5909 0.5857 -0.6399 1.544 353.2443 -93.9315)" gradientUnits="userSpaceOnUse">
			<stop  offset="0" style="stop-color:#F7AA00"/>
			<stop  offset="1" style="stop-color:#F4BD64"/>
		</radialGradient>
		<path class="st11" d="M150.8,24.2c0.3,1.4-0.5,2.7-1.9,3.1c-1.4,0.3-2.8-0.5-3.2-1.8c-0.3-1.4,0.5-2.7,1.9-3.1
			S150.5,22.9,150.8,24.2z"/>
		
			<radialGradient id="SVGID_10_" cx="-90.5579" cy="101.3529" r="1.9172" gradientTransform="matrix(1.5909 0.5857 -0.6399 1.544 353.2443 -93.9315)" gradientUnits="userSpaceOnUse">
			<stop  offset="0" style="stop-color:#F7AA00"/>
			<stop  offset="1" style="stop-color:#F4BD64"/>
		</radialGradient>
		<path class="st12" d="M147.5,8.7c0.4,1.7-0.7,3.4-2.4,3.9s-3.5-0.6-4-2.3c-0.4-1.7,0.7-3.4,2.4-3.9C145.3,6,147.1,7,147.5,8.7z"/>
		
			<radialGradient id="SVGID_11_" cx="-68.567" cy="98.3354" r="2.1747" gradientTransform="matrix(1.5909 0.5857 -0.6399 1.544 353.2443 -93.9315)" gradientUnits="userSpaceOnUse">
			<stop  offset="0" style="stop-color:#F7AA00"/>
			<stop  offset="1" style="stop-color:#F4BD64"/>
		</radialGradient>
		<path class="st13" d="M184.9,16.8c0.5,1.9-0.8,3.9-2.8,4.4c-2,0.5-4-0.7-4.5-2.6s0.8-3.9,2.8-4.4
			C182.4,13.8,184.4,14.9,184.9,16.8z"/>
		
			<radialGradient id="SVGID_12_" cx="-92.8762" cy="160.4947" r="2.3035" gradientTransform="matrix(1.5909 0.5857 -0.6399 1.544 353.2443 -93.9315)" gradientUnits="userSpaceOnUse">
			<stop  offset="0" style="stop-color:#F7AA00"/>
			<stop  offset="1" style="stop-color:#F4BD64"/>
		</radialGradient>
		<path class="st14" d="M106.6,98.5c0.5,2-0.8,4.1-2.9,4.6c-2.1,0.5-4.3-0.7-4.8-2.7c-0.5-2,0.8-4.1,2.9-4.6
			C104,95.3,106.1,96.5,106.6,98.5z"/>
		
			<radialGradient id="SVGID_13_" cx="-90.723" cy="164.5542" r="1.6587" gradientTransform="matrix(1.5909 0.5857 -0.6399 1.544 353.2443 -93.9315)" gradientUnits="userSpaceOnUse">
			<stop  offset="0" style="stop-color:#F7AA00"/>
			<stop  offset="1" style="stop-color:#F4BD64"/>
		</radialGradient>
		<path class="st15" d="M106.4,106.3c0.4,1.5-0.6,3-2.1,3.3c-1.5,0.4-3.1-0.5-3.4-2c-0.4-1.5,0.6-3,2.1-3.3S106,104.8,106.4,106.3z"
			/>
		
			<radialGradient id="SVGID_14_" cx="-73.8476" cy="154.7367" r="3.3324" gradientTransform="matrix(1.5909 0.5857 -0.6399 1.544 353.2443 -93.9315)" gradientUnits="userSpaceOnUse">
			<stop  offset="0" style="stop-color:#F7AA00"/>
			<stop  offset="1" style="stop-color:#F4BD64"/>
		</radialGradient>
		<path class="st16" d="M142.3,100.3c0.7,2.9-1.2,5.9-4.2,6.7c-3.1,0.8-6.1-1-6.9-4c-0.7-2.9,1.2-5.9,4.2-6.7
			C138.5,95.6,141.6,97.4,142.3,100.3z"/>
		
			<radialGradient id="SVGID_15_" cx="-87.7983" cy="180.9273" r="2.0021" gradientTransform="matrix(1.5909 0.5857 -0.6399 1.544 353.2443 -93.9315)" gradientUnits="userSpaceOnUse">
			<stop  offset="0" style="stop-color:#F7AA00"/>
			<stop  offset="1" style="stop-color:#F4BD64"/>
		</radialGradient>
		<path class="st17" d="M101.1,133.2c0.4,1.8-0.7,3.6-2.5,4c-1.8,0.5-3.7-0.6-4.1-2.4s0.7-3.6,2.5-4S100.7,131.4,101.1,133.2z"/>
		
			<radialGradient id="SVGID_16_" cx="-92.7358" cy="186.5781" r="1.7026" gradientTransform="matrix(1.5909 0.5857 -0.6399 1.544 353.2443 -93.9315)" gradientUnits="userSpaceOnUse">
			<stop  offset="0" style="stop-color:#F7AA00"/>
			<stop  offset="1" style="stop-color:#F4BD64"/>
		</radialGradient>
		<path class="st18" d="M89.2,139.1c0.4,1.5-0.6,3-2.2,3.4c-1.6,0.4-3.1-0.5-3.5-2c-0.4-1.5,0.6-3,2.2-3.4
			C87.2,136.7,88.8,137.6,89.2,139.1z"/>
	</g>
</g>
<g id="Icon_Grayscale">
</g>
<g id="Icon_Color">
</g>
</svg>
