<?xml version="1.0" encoding="utf-8"?>
<!-- Generator: Adobe Illustrator 22.0.1, SVG Export Plug-In . SVG Version: 6.00 Build 0)  -->
<svg version="1.1" xmlns="http://www.w3.org/2000/svg" xmlns:xlink="http://www.w3.org/1999/xlink" x="0px" y="0px"
	 viewBox="0 0 200 175.4" style="enable-background:new 0 0 200 175.4;" xml:space="preserve">
<style type="text/css">
	.st0{fill:#666666;}
	.st1{fill:#B3B3B3;}
	.st2{fill:#333333;}
	.st3{fill:#11897D;}
	.st4{fill:#FFC60B;}
</style>
<g id="BW-Icon">
</g>
<g id="BW-Logo">
</g>
<g id="Icon">
</g>
<g id="Logo">
	<g>
		<path class="st3" d="M104.6,116.8C91,105.4,82.9,87.2,83.5,69.2c0.3-9,2.8-17.8,6.3-25.9c3.5-8.1,8.4-15.7,14.4-22.3
			c12-13.3,30.1-21.1,48.3-21c9.1,0.1,18.1,2.1,26.3,5.9c8.2,3.8,15.5,9.3,21.2,16c0.1,0.1,0.1,0.2,0,0.3c-0.1,0.1-0.2,0.1-0.3,0
			c-6.7-5.7-14.2-10.2-22.2-13.1c-8-3-16.5-4.5-25-4.4c-8.5,0-16.9,1.5-24.9,4.6c-7.9,3.1-15.3,7.6-21.7,13.4
			c-6.4,5.8-11.6,13.1-14.8,21.1c-3.2,8.1-4.3,16.9-4,25.4c0.2,8.5,1.8,17,4.8,25c3,8,7.5,15.5,13.1,22.3c0.1,0.1,0.1,0.2,0,0.3
			C104.8,116.8,104.7,116.8,104.6,116.8z"/>
		<g>
			<path class="st2" d="M2.1,142.1c-0.9-0.5-1.6-1.2-2-2.1C0,139.9,0,139.8,0,139.7c0-0.2,0.1-0.3,0.2-0.5c0.1-0.1,0.3-0.2,0.5-0.2
				c0.2,0,0.3,0,0.4,0.1s0.2,0.2,0.3,0.4c0.3,0.6,0.8,1,1.5,1.4c0.7,0.4,1.5,0.5,2.4,0.5c1.1,0,1.9-0.3,2.5-0.8s1-1.2,1-2.1
				c0-0.8-0.3-1.5-0.9-2c-0.6-0.6-1.5-0.9-2.7-1.1c-1.5-0.2-2.7-0.6-3.5-1.4c-0.9-0.8-1.3-1.7-1.3-2.8c0-0.8,0.2-1.4,0.6-2
				c0.4-0.6,1-1,1.7-1.3c0.7-0.3,1.6-0.5,2.5-0.5c1,0,1.9,0.2,2.7,0.7c0.8,0.4,1.4,1,1.8,1.7c0.1,0.1,0.1,0.3,0.1,0.5
				c0,0.2-0.1,0.4-0.3,0.6C9.5,131,9.4,131,9.3,131c-0.1,0-0.3,0-0.4-0.1c-0.1-0.1-0.2-0.2-0.3-0.3c-0.7-1.1-1.8-1.7-3.3-1.7
				c-1,0-1.9,0.2-2.5,0.7C2.3,130,2,130.6,2,131.4c0,1.5,1.2,2.4,3.6,2.7c1.6,0.2,2.8,0.7,3.6,1.5c0.8,0.7,1.2,1.7,1.2,2.9
				c0,0.9-0.2,1.7-0.7,2.3c-0.4,0.7-1,1.2-1.8,1.5c-0.8,0.3-1.6,0.5-2.5,0.5C4.1,142.9,3,142.6,2.1,142.1z"/>
			<path class="st2" d="M19.5,132.7c0.7,0.4,1.3,0.9,1.7,1.7c0.4,0.7,0.6,1.6,0.6,2.6v5c0,0.2-0.1,0.4-0.2,0.5
				c-0.1,0.1-0.3,0.2-0.5,0.2c-0.2,0-0.4-0.1-0.5-0.2c-0.1-0.1-0.2-0.3-0.2-0.5v-5c0-1.1-0.3-2-1-2.6c-0.6-0.6-1.5-0.9-2.5-0.9
				c-0.6,0-1.2,0.1-1.7,0.4c-0.5,0.2-0.9,0.6-1.2,1c-0.3,0.4-0.4,0.9-0.4,1.4v5.7c0,0.2-0.1,0.4-0.2,0.5c-0.1,0.1-0.3,0.2-0.5,0.2
				c-0.2,0-0.4-0.1-0.5-0.2c-0.1-0.1-0.2-0.3-0.2-0.5v-13.5c0-0.2,0.1-0.4,0.2-0.5c0.1-0.1,0.3-0.2,0.5-0.2c0.2,0,0.4,0.1,0.5,0.2
				c0.1,0.1,0.2,0.3,0.2,0.5v5.2c0.4-0.5,0.9-0.8,1.5-1.1c0.6-0.3,1.3-0.4,2-0.4C17.9,132.1,18.7,132.3,19.5,132.7z"/>
			<path class="st2" d="M23.4,129.9c-0.2-0.2-0.3-0.5-0.3-0.7c0-0.3,0.1-0.6,0.3-0.7c0.2-0.2,0.5-0.3,0.7-0.3c0.3,0,0.5,0.1,0.7,0.3
				c0.2,0.2,0.3,0.4,0.3,0.7c0,0.3-0.1,0.5-0.3,0.7c-0.2,0.2-0.5,0.3-0.8,0.3S23.6,130.1,23.4,129.9z M23.6,142.5
				c-0.1-0.1-0.2-0.3-0.2-0.5v-9c0-0.2,0.1-0.4,0.2-0.5c0.1-0.1,0.3-0.2,0.5-0.2c0.2,0,0.4,0.1,0.5,0.2c0.1,0.1,0.2,0.3,0.2,0.5v9
				c0,0.2-0.1,0.4-0.2,0.5c-0.1,0.1-0.3,0.2-0.5,0.2C23.9,142.7,23.8,142.6,23.6,142.5z"/>
			<path class="st2" d="M30.2,129.9c-0.4,0.6-0.6,1.3-0.6,2.3v0.4h2.3c0.2,0,0.4,0.1,0.5,0.2c0.1,0.1,0.2,0.3,0.2,0.5
				c0,0.2-0.1,0.3-0.2,0.5c-0.1,0.1-0.3,0.2-0.5,0.2h-2.3v8.1c0,0.2-0.1,0.4-0.2,0.5c-0.1,0.1-0.3,0.2-0.6,0.2
				c-0.2,0-0.4-0.1-0.5-0.2c-0.1-0.1-0.2-0.3-0.2-0.5v-8.1h-1.2c-0.2,0-0.4-0.1-0.5-0.2c-0.1-0.1-0.2-0.3-0.2-0.5
				c0-0.2,0.1-0.3,0.2-0.5c0.1-0.1,0.3-0.2,0.5-0.2h1.2v-0.4c0-1.4,0.4-2.5,1.1-3.3c0.7-0.8,1.7-1.2,3-1.2c0.2,0,0.4,0.1,0.5,0.2
				c0.1,0.1,0.2,0.3,0.2,0.5c0,0.2-0.1,0.4-0.2,0.5c-0.1,0.1-0.3,0.2-0.5,0.2C31.3,129,30.7,129.3,30.2,129.9z"/>
			<path class="st2" d="M38.6,141.4c0.1,0.1,0.2,0.3,0.2,0.5c0,0.2-0.1,0.4-0.2,0.5c-0.2,0.1-0.3,0.2-0.6,0.2h-0.4
				c-0.7,0-1.3-0.2-1.8-0.5s-1-0.8-1.3-1.3c-0.3-0.6-0.5-1.2-0.5-1.9v-5.1h-1.2c-0.2,0-0.4-0.1-0.5-0.2c-0.1-0.1-0.2-0.3-0.2-0.5
				c0-0.2,0.1-0.3,0.2-0.5c0.1-0.1,0.3-0.2,0.5-0.2H34v-3c0-0.2,0.1-0.4,0.2-0.5c0.1-0.1,0.3-0.2,0.5-0.2c0.2,0,0.4,0.1,0.5,0.2
				c0.1,0.1,0.2,0.3,0.2,0.5v3h2.2c0.2,0,0.4,0.1,0.5,0.2c0.1,0.1,0.2,0.3,0.2,0.5c0,0.2-0.1,0.3-0.2,0.5c-0.1,0.1-0.3,0.2-0.5,0.2
				h-2.2v5.1c0,0.7,0.2,1.2,0.6,1.6c0.4,0.4,0.9,0.6,1.5,0.6h0.5C38.3,141.2,38.4,141.3,38.6,141.4z"/>
			<path class="st2" d="M41.1,142.4c-0.7-0.3-1.3-0.6-1.8-1.1c-0.1-0.2-0.2-0.3-0.2-0.4c0-0.2,0.1-0.4,0.3-0.6
				c0.2-0.1,0.3-0.2,0.5-0.2c0.2,0,0.4,0.1,0.6,0.3c0.3,0.4,0.7,0.6,1.2,0.8c0.5,0.2,1.1,0.3,1.7,0.3c0.9,0,1.6-0.2,2-0.5
				c0.4-0.3,0.7-0.7,0.7-1.2c0-0.5-0.2-0.8-0.7-1.2c-0.4-0.3-1.2-0.5-2.1-0.7c-1.3-0.2-2.2-0.6-2.8-1.1s-0.9-1.1-0.9-1.8
				c0-0.9,0.4-1.7,1.1-2.2c0.7-0.5,1.6-0.8,2.7-0.8c0.8,0,1.6,0.1,2.2,0.4c0.6,0.3,1.1,0.7,1.5,1.2c0.1,0.2,0.2,0.3,0.2,0.4
				c0,0.2-0.1,0.4-0.3,0.5c-0.1,0.1-0.2,0.1-0.4,0.1c-0.3,0-0.5-0.1-0.7-0.3c-0.6-0.7-1.5-1.1-2.6-1.1c-0.7,0-1.3,0.1-1.7,0.4
				c-0.4,0.3-0.6,0.7-0.6,1.1c0,0.5,0.2,0.8,0.6,1.1c0.4,0.3,1.1,0.5,2.1,0.7c1.4,0.2,2.4,0.6,2.9,1.1c0.6,0.5,0.9,1.2,0.9,1.9
				c0,0.6-0.2,1.1-0.5,1.6c-0.4,0.5-0.8,0.8-1.5,1.1c-0.6,0.3-1.3,0.4-2.1,0.4C42.6,142.8,41.8,142.7,41.1,142.4z"/>
			<path class="st2" d="M59.8,141.9c-1.2-0.7-2.1-1.6-2.7-2.8c-0.7-1.2-1-2.5-1-4c0-1.5,0.3-2.8,1-3.9c0.7-1.2,1.6-2.1,2.7-2.8
				c1.2-0.7,2.5-1,3.9-1c1.4,0,2.8,0.3,3.9,1c1.2,0.7,2.1,1.6,2.8,2.8c0.7,1.2,1,2.5,1,3.9c0,1.5-0.3,2.8-1,4
				c-0.7,1.2-1.6,2.1-2.8,2.8c-1.2,0.7-2.5,1-3.9,1C62.3,142.9,61,142.6,59.8,141.9z M66.9,140.7c0.9-0.6,1.7-1.3,2.2-2.3
				c0.5-1,0.8-2,0.8-3.2c0-1.2-0.3-2.2-0.8-3.2c-0.5-1-1.3-1.7-2.2-2.3c-0.9-0.6-2-0.8-3.2-0.8c-1.2,0-2.2,0.3-3.2,0.8
				c-0.9,0.6-1.7,1.3-2.2,2.3c-0.5,1-0.8,2-0.8,3.2c0,1.2,0.3,2.2,0.8,3.2c0.5,1,1.3,1.7,2.2,2.3c0.9,0.6,2,0.8,3.2,0.8
				C64.9,141.5,66,141.2,66.9,140.7z"/>
			<path class="st2" d="M80.4,132.7c0.7,0.4,1.3,0.9,1.7,1.7c0.4,0.7,0.6,1.6,0.6,2.6v5c0,0.2-0.1,0.4-0.2,0.5
				c-0.1,0.1-0.3,0.2-0.5,0.2c-0.2,0-0.4-0.1-0.5-0.2c-0.1-0.1-0.2-0.3-0.2-0.5v-5c0-1.1-0.3-2-1-2.6s-1.5-0.9-2.5-0.9
				c-0.6,0-1.2,0.1-1.7,0.4c-0.5,0.2-0.9,0.6-1.2,1c-0.3,0.4-0.4,0.9-0.4,1.4v5.7c0,0.2-0.1,0.4-0.2,0.5c-0.1,0.1-0.3,0.2-0.5,0.2
				c-0.2,0-0.4-0.1-0.5-0.2c-0.1-0.1-0.2-0.3-0.2-0.5v-9c0-0.2,0.1-0.4,0.2-0.5c0.1-0.1,0.3-0.2,0.5-0.2c0.2,0,0.4,0.1,0.5,0.2
				c0.1,0.1,0.2,0.3,0.2,0.5v0.7c0.4-0.5,0.9-0.8,1.5-1.1c0.6-0.3,1.3-0.4,2-0.4C78.9,132.1,79.7,132.3,80.4,132.7z"/>
			<path class="st2" d="M93,142.5c-0.1-0.1-0.2-0.3-0.2-0.5v-13.5c0-0.2,0.1-0.4,0.2-0.5c0.1-0.1,0.3-0.2,0.5-0.2H97
				c1.4,0,2.7,0.3,3.9,1c1.1,0.6,2,1.5,2.7,2.7c0.6,1.1,1,2.4,1,3.9c0,1.4-0.3,2.7-1,3.9c-0.6,1.1-1.5,2-2.7,2.7
				c-1.1,0.6-2.4,1-3.9,1h-3.5C93.3,142.7,93.1,142.6,93,142.5z M97,141.4c1.2,0,2.2-0.3,3.1-0.8c0.9-0.5,1.6-1.3,2.1-2.2
				c0.5-0.9,0.8-2,0.8-3.2c0-1.2-0.3-2.2-0.8-3.2c-0.5-0.9-1.2-1.7-2.1-2.2c-0.9-0.5-1.9-0.8-3.1-0.8h-2.7v12.3H97z"/>
			<path class="st2" d="M113,132.8c0.7,0.4,1.3,1.1,1.7,1.8c0.4,0.8,0.6,1.7,0.6,2.7c0,0.2-0.1,0.4-0.2,0.5
				c-0.1,0.1-0.3,0.2-0.5,0.2h-7.8c0.1,1.1,0.5,1.9,1.2,2.6c0.7,0.7,1.6,1,2.7,1c0.5,0,0.9-0.1,1.4-0.2c0.5-0.2,0.8-0.4,1.1-0.6
				c0.2-0.1,0.3-0.2,0.5-0.2c0.1,0,0.3,0.1,0.4,0.2c0.2,0.2,0.3,0.3,0.3,0.5c0,0.2-0.1,0.3-0.2,0.4c-0.4,0.4-1,0.7-1.6,0.9
				c-0.7,0.2-1.3,0.4-1.9,0.4c-1,0-1.9-0.2-2.8-0.7c-0.8-0.5-1.4-1.1-1.9-1.9c-0.5-0.8-0.7-1.7-0.7-2.8c0-1,0.2-2,0.6-2.8
				c0.4-0.8,1-1.4,1.8-1.9c0.8-0.5,1.6-0.7,2.6-0.7C111.5,132.1,112.3,132.3,113,132.8z M108.1,134.3c-0.6,0.6-1,1.4-1.2,2.4h7
				c-0.1-1-0.5-1.8-1.1-2.4c-0.6-0.6-1.4-0.9-2.4-0.9C109.6,133.4,108.7,133.7,108.1,134.3z"/>
			<path class="st2" d="M129.7,132.6c0.6,0.4,1,0.9,1.4,1.5c0.3,0.7,0.5,1.4,0.5,2.3v5.5c0,0.2-0.1,0.4-0.2,0.5
				c-0.1,0.1-0.3,0.2-0.5,0.2c-0.2,0-0.4-0.1-0.5-0.2c-0.1-0.1-0.2-0.3-0.2-0.5v-5.5c0-0.9-0.2-1.6-0.7-2.2
				c-0.5-0.5-1.1-0.8-1.8-0.8c-0.8,0-1.5,0.3-2,0.8c-0.5,0.5-0.7,1.2-0.7,2.1v0v5.5c0,0.2-0.1,0.4-0.2,0.5c-0.1,0.1-0.3,0.2-0.5,0.2
				c-0.2,0-0.4-0.1-0.5-0.2c-0.1-0.1-0.2-0.3-0.2-0.5v-5.5c0-0.9-0.2-1.6-0.7-2.2s-1.1-0.8-1.8-0.8c-0.8,0-1.4,0.3-2,0.8
				c-0.5,0.5-0.8,1.2-0.8,2v5.7c0,0.2-0.1,0.4-0.2,0.5c-0.1,0.1-0.3,0.2-0.5,0.2c-0.2,0-0.4-0.1-0.5-0.2c-0.1-0.1-0.2-0.3-0.2-0.5
				v-9c0-0.2,0.1-0.4,0.2-0.5c0.1-0.1,0.3-0.2,0.5-0.2c0.2,0,0.4,0.1,0.5,0.2c0.1,0.1,0.2,0.3,0.2,0.5v0.4c0.4-0.4,0.8-0.7,1.3-1
				c0.5-0.2,1-0.3,1.6-0.3c0.7,0,1.3,0.2,1.9,0.5c0.6,0.3,1,0.8,1.3,1.3c0.4-0.6,0.9-1,1.5-1.3c0.6-0.3,1.3-0.5,2-0.5
				C128.4,132.1,129.1,132.3,129.7,132.6z"/>
			<path class="st2" d="M140.7,132.8c0.8,0.5,1.5,1.1,1.9,1.9c0.5,0.8,0.7,1.7,0.7,2.7v4.5c0,0.2-0.1,0.4-0.2,0.5
				c-0.1,0.1-0.3,0.2-0.5,0.2c-0.2,0-0.4-0.1-0.5-0.2c-0.1-0.1-0.2-0.3-0.2-0.5v-1.2c-0.4,0.6-1,1.1-1.7,1.5
				c-0.7,0.4-1.5,0.5-2.3,0.5c-1,0-1.9-0.2-2.6-0.7c-0.8-0.5-1.4-1.1-1.9-1.9c-0.5-0.8-0.7-1.7-0.7-2.7c0-1,0.2-1.9,0.7-2.7
				c0.5-0.8,1.1-1.5,1.9-1.9c0.8-0.5,1.7-0.7,2.7-0.7S139.9,132.3,140.7,132.8z M140,140.9c0.6-0.3,1.1-0.8,1.4-1.4
				c0.3-0.6,0.5-1.3,0.5-2c0-0.8-0.2-1.4-0.5-2c-0.3-0.6-0.8-1.1-1.4-1.4c-0.6-0.4-1.2-0.5-2-0.5s-1.4,0.2-2,0.5
				c-0.6,0.4-1.1,0.8-1.4,1.4c-0.3,0.6-0.5,1.3-0.5,2c0,0.8,0.2,1.4,0.5,2c0.3,0.6,0.8,1.1,1.4,1.4c0.6,0.3,1.3,0.5,2,0.5
				S139.4,141.3,140,140.9z"/>
			<path class="st2" d="M152.4,132.7c0.7,0.4,1.3,0.9,1.7,1.7s0.6,1.6,0.6,2.6v5c0,0.2-0.1,0.4-0.2,0.5c-0.1,0.1-0.3,0.2-0.5,0.2
				c-0.2,0-0.4-0.1-0.5-0.2c-0.1-0.1-0.2-0.3-0.2-0.5v-5c0-1.1-0.3-2-1-2.6c-0.6-0.6-1.5-0.9-2.5-0.9c-0.6,0-1.2,0.1-1.7,0.4
				c-0.5,0.2-0.9,0.6-1.2,1c-0.3,0.4-0.4,0.9-0.4,1.4v5.7c0,0.2-0.1,0.4-0.2,0.5c-0.1,0.1-0.3,0.2-0.5,0.2c-0.2,0-0.4-0.1-0.5-0.2
				c-0.1-0.1-0.2-0.3-0.2-0.5v-9c0-0.2,0.1-0.4,0.2-0.5c0.1-0.1,0.3-0.2,0.5-0.2c0.2,0,0.4,0.1,0.5,0.2c0.1,0.1,0.2,0.3,0.2,0.5v0.7
				c0.4-0.5,0.9-0.8,1.5-1.1c0.6-0.3,1.3-0.4,2-0.4C150.9,132.1,151.7,132.3,152.4,132.7z"/>
			<path class="st2" d="M166.8,132.9v4.5c0,1-0.2,1.9-0.7,2.7c-0.5,0.8-1.1,1.5-1.9,1.9c-0.8,0.5-1.7,0.7-2.7,0.7
				c-1,0-1.9-0.2-2.7-0.7c-0.8-0.5-1.5-1.1-1.9-1.9c-0.5-0.8-0.7-1.7-0.7-2.7s0.2-1.9,0.7-2.7c0.5-0.8,1.1-1.5,1.9-1.9
				c0.8-0.5,1.7-0.7,2.6-0.7c0.8,0,1.6,0.2,2.3,0.5c0.7,0.4,1.3,0.8,1.7,1.5v-5.6c0-0.2,0.1-0.4,0.2-0.5s0.3-0.2,0.5-0.2
				c0.2,0,0.4,0.1,0.5,0.2c0.1,0.1,0.2,0.3,0.2,0.5v4.3C166.8,132.8,166.8,132.8,166.8,132.9z M163.4,140.9c0.6-0.4,1.1-0.8,1.4-1.4
				c0.3-0.6,0.5-1.3,0.5-2c0-0.2,0-0.4,0-0.5c0,0,0-0.1,0-0.1c-0.1-1-0.5-1.8-1.3-2.5c-0.7-0.6-1.6-1-2.6-1c-0.7,0-1.4,0.2-2,0.5
				s-1.1,0.8-1.4,1.4c-0.3,0.6-0.5,1.3-0.5,2s0.2,1.4,0.5,2c0.3,0.6,0.8,1.1,1.4,1.4c0.6,0.4,1.3,0.5,2,0.5
				C162.2,141.5,162.8,141.3,163.4,140.9z"/>
		</g>
		<path class="st4" d="M78.4,116.8c10.1-10.2,20.3-20.3,30.5-30.3c5.1-5,10.3-10,15.4-14.9c5.2-5,10.3-9.9,15.5-14.9l1.9-1.8
			l1.2,2.3c5,9.7,10,19.5,14.9,29.2c4.8,9.8,9.8,19.6,14.5,29.4c4.8,9.8,9.5,19.7,14.1,29.6c4.6,9.9,9.1,19.9,13.5,29.9
			c-5.4-9.5-10.7-19.1-15.8-28.7c-5.2-9.6-10.2-19.3-15.2-29c-5-9.7-9.9-19.5-14.8-29.2c-4.8-9.8-9.7-19.6-14.4-29.4l3,0.5
			c-5.3,4.8-10.6,9.7-15.9,14.5c-5.3,4.8-10.6,9.6-16,14.4C100,98,89.3,107.5,78.4,116.8z"/>
	</g>
</g>
</svg>
