<?xml version="1.0" encoding="utf-8"?>
<!-- Generator: Adobe Illustrator 22.0.1, SVG Export Plug-In . SVG Version: 6.00 Build 0)  -->
<svg version="1.1" id="Layer_1" xmlns="http://www.w3.org/2000/svg" xmlns:xlink="http://www.w3.org/1999/xlink" x="0px" y="0px"
	 viewBox="0 0 159.3 193.5" style="enable-background:new 0 0 159.3 193.5;" xml:space="preserve">
<style type="text/css">
	.st0{fill:#FFFFFF;}
	.st1{fill:none;stroke:#D9BDE5;stroke-width:16;stroke-linecap:round;stroke-miterlimit:10;}
	.st2{fill:#D9BDE5;}
</style>
<g>
	<path class="st0" d="M30.9,95.6c-0.8-0.8-1.1-1.7-1.1-2.8v-65l-10,3.5c-0.7,0.3-1.3,0.5-2,0.5c-1.1,0-2.1-0.4-2.8-1.1
		c-0.7-0.7-1.1-1.6-1.1-2.8c0-1.9,0.8-3.2,2.5-3.7l15.4-5.3c1-0.3,1.7-0.5,2-0.5c1.1,0,2,0.4,2.7,1.1c0.7,0.7,1.1,1.7,1.1,2.8v70.4
		c0,1.1-0.4,2-1.1,2.8c-0.7,0.8-1.7,1.1-2.8,1.1C32.6,96.8,31.7,96.4,30.9,95.6z"/>
	<path class="st0" d="M63.4,92.1c-3.5-3.1-6.2-7.6-8-13.5c-1.8-5.9-2.8-12.9-2.8-21c0-8.1,0.9-15,2.8-20.9c1.8-5.9,4.5-10.4,8-13.5
		c3.5-3.1,7.8-4.7,12.7-4.7c5,0,9.3,1.6,12.8,4.8c3.5,3.2,6.2,7.7,8,13.5c1.8,5.9,2.8,12.8,2.8,20.8c0,12.3-2.1,21.9-6.2,28.8
		c-4.1,6.9-9.9,10.4-17.4,10.4C71.1,96.8,66.9,95.2,63.4,92.1z M87.9,80.4c2.7-5.7,4-13.3,4-22.8c0-9.4-1.3-17-4-22.7
		c-2.7-5.7-6.6-8.6-11.8-8.6c-5.1,0-9,2.9-11.7,8.6c-2.7,5.7-4,13.3-4,22.7c0,9.5,1.3,17.2,4,22.9C67,86.1,70.9,89,76.1,89
		C81.3,89,85.2,86.1,87.9,80.4z"/>
</g>
<line class="st1" x1="8" y1="8" x2="101" y2="101"/>
<g>
	<path class="st2" d="M130.9,91c0,0.3-0.7,4.2-2,11.5c-2.5,14.7-3.8,25.8-3.8,33.3v34.1c0,9.3,0.5,15,1.6,17
		c0.1,0.2,0.5,0.8,1.3,1.6c0.8,0.9,1.2,1.6,1.2,2.1c0,1.9-0.9,2.8-2.8,2.8c-1.8,0-4-0.7-6.8-2.1c-0.9-1.9-1.3-3.7-1.3-5.4v-74
		c-0.6-0.4-1.4-1.1-2.6-2v-4c0-2.5,0.9-7.5,2.8-14.8c2-7.9,3.6-11.9,4.8-11.9c1.6,0,3.3,1.5,5,4.5C130.1,86.8,130.9,89.2,130.9,91z"
		/>
	<path class="st2" d="M159.3,91c0,0.3-0.7,4.2-2,11.5c-2.5,14.7-3.8,25.8-3.8,33.3v34.1c0,9.3,0.5,15,1.6,17
		c0.1,0.2,0.5,0.8,1.3,1.6c0.8,0.9,1.2,1.6,1.2,2.1c0,1.9-0.9,2.8-2.8,2.8c-1.8,0-4-0.7-6.8-2.1c-0.9-1.9-1.3-3.7-1.3-5.4v-74
		c-0.6-0.4-1.4-1.1-2.6-2v-4c0-2.5,0.9-7.5,2.8-14.8c2-7.9,3.6-11.9,4.8-11.9c1.6,0,3.3,1.5,5,4.5C158.4,86.8,159.3,89.2,159.3,91z"
		/>
</g>
</svg>
